<svg id="Layer_2" data-name="Layer 2" xmlns="http://www.w3.org/2000/svg" viewBox="0 0 200 200"><defs><style>.cls-1,.cls-2{fill:#ff1501;}.cls-2{font-size:72px;font-family:Montserrat-SemiBold, Montserrat;font-weight:600;letter-spacing:0.1em;}.cls-3{letter-spacing:0.09em;}.cls-4{letter-spacing:0.1em;}</style></defs><path class="cls-1" d="M100.31,106.3a12.35,12.35,0,0,1,8.91-3.81H125.9a13,13,0,0,0,13-13h0a13,13,0,0,0-13-13l-63-.25a6.56,6.56,0,0,0-6.57,6.55v75.28a4.72,4.72,0,0,1-4.72,4.71l-23.93-.06A4.72,4.72,0,0,1,23,158V50.24a8,8,0,0,1,8-8c21.32,0,79.76.15,105.68,0,14.2-.07,44.27,8.21,44.27,45.2,0,33.72-31.94,44.46-46.2,44.46h-52a1.86,1.86,0,0,1-1.35-3.15Z"/><text class="cls-2" transform="translate(-136.56 256.73)">POOR<tspan class="cls-3" x="254.95" y="0">D</tspan><tspan class="cls-4" x="320.9" y="0">ASH</tspan></text></svg>